<svg xmlns="http://www.w3.org/2000/svg" viewBox="0 0 64 64" fill="none">
  <path d="M16 32c0-8.837 7.163-16 16-16 5.338 0 10.084 2.488 13.123 6.349l8.652-2.162a4 4 0 0 1 4.845 3.007l1.272 6.366a4 4 0 0 1-2.952 4.621l-8.65 2.164A15.97 15.97 0 0 1 32 48c-8.837 0-16-7.163-16-16Z" fill="#2BAE96"/>
  <path d="M48.545 17.364a14.997 14.997 0 0 0-4.413 2.939 13.99 13.99 0 0 0-2.272 2.7c.57.091 1.145.172 1.72.236a12.012 12.012 0 0 1 7.95 5.01l2.578-5.63a2 2 0 0 0-2.563-2.99l-2.999 1.103Zm-8.99 21.325a1.5 1.5 0 1 0 2.121-2.121 1.5 1.5 0 0 0-2.121 2.121Z" fill="#fff" opacity="0.85"/>
  <path d="M20 22s12 2 12 10-12 10-12 10" stroke="#fff" stroke-width="4" stroke-linecap="round" stroke-linejoin="round"/>
  <circle cx="34" cy="26" r="3" fill="#fff"/>
</svg>
